<?xml version="1.0" encoding="UTF-8"?>
<!DOCTYPE svg PUBLIC "-//W3C//DTD SVG 1.1//EN" "http://www.w3.org/Graphics/SVG/1.1/DTD/svg11.dtd">
<svg xmlns="http://www.w3.org/2000/svg" xmlns:xlink="http://www.w3.org/1999/xlink" version="1.1" width="692px" height="526px" viewBox="-0.5 -0.5 692 526" style="background-color: rgb(255, 255, 255);">
<defs>
<style type="text/css">
svg:target {
    filter: invert(93%) hue-rotate(180deg);
}
svg:target[style^="background-color: rgb(255, 255, 255);"] {
    background-color: transparent !important;
}
:target image {
    filter: invert(100%) hue-rotate(180deg) saturate(1.25);
}
</style>

</defs><rect fill="#ffffff" width="100%" height="100%" x="0" y="0"/><g><g><rect x="420" y="190" width="182.37" height="70" fill="none" stroke="none" transform="translate(511.18,0)scale(-1,1)translate(-511.18,0)" pointer-events="all"/><path d="M 602.22 219.11 C 602.13 218.6 601.93 217.98 601.56 217.18 L 567.35 190.09 L 498.51 190.09 C 496.91 190 496.05 190.75 495.29 191.62 L 472.3 214.61 L 421.97 222.94 C 421.27 223.56 420.57 224.16 420 225.73 L 420.11 242.99 C 421.2 245.76 421.95 245.39 422.78 245.79 L 432.47 245.79 C 432.47 222.33 467.53 222.4 467.53 245.79 L 556.92 245.79 C 556.92 222.27 591.7 222.31 591.7 245.79 L 599.65 245.79 C 600.97 245.67 601.73 244.5 602.37 243.12 L 602.22 219.11 Z M 528.33 218 L 480.65 218 C 478.83 217.29 478.59 216.2 479.34 214.89 L 496.49 198 C 496.87 197.68 497.19 197.22 497.85 197.33 L 528.33 197.33 L 528.33 218 Z M 577.72 218 L 534 218 L 534 197.31 L 559.64 197.31 C 560.3 197.2 560.61 197.66 561 197.99 L 575.7 212.74 C 577.06 214.79 579.78 217.58 577.72 218 Z M 449.91 231.62 C 442.06 231.62 435.67 237.97 435.67 245.81 C 435.67 253.65 442.04 260 449.91 260 C 457.78 260 464.15 253.65 464.15 245.81 C 464.15 237.97 457.77 231.62 449.91 231.62 Z M 449.91 251.78 C 446.6 251.78 443.9 249.1 443.9 245.79 C 443.9 242.48 446.58 239.81 449.91 239.81 C 453.22 239.81 455.91 242.48 455.91 245.79 C 455.91 249.1 453.22 251.78 449.91 251.78 Z M 574.3 231.62 C 566.44 231.62 560.06 237.97 560.06 245.81 C 560.06 253.65 566.43 260 574.3 260 C 582.17 260 588.52 253.65 588.52 245.81 C 588.52 237.97 582.15 231.62 574.3 231.62 Z M 574.3 251.78 C 570.99 251.78 568.28 249.1 568.28 245.79 C 568.28 242.48 570.97 239.81 574.3 239.81 C 577.61 239.81 580.3 242.48 580.3 245.79 C 580.3 249.1 577.61 251.78 574.3 251.78 Z" fill="#ffe6cc" stroke="#d79b00" stroke-miterlimit="10" transform="translate(511.18,0)scale(-1,1)translate(-511.18,0)" pointer-events="all"/></g><g><rect x="0" y="190" width="182.37" height="70" fill="none" stroke="none" transform="translate(91.18,0)scale(-1,1)translate(-91.18,0)" pointer-events="all"/><path d="M 182.22 219.11 C 182.13 218.6 181.93 217.98 181.56 217.18 L 147.35 190.09 L 78.51 190.09 C 76.91 190 76.05 190.75 75.29 191.62 L 52.3 214.61 L 1.97 222.94 C 1.27 223.56 0.57 224.16 0 225.73 L 0.11 242.99 C 1.2 245.76 1.95 245.39 2.78 245.79 L 12.47 245.79 C 12.47 222.33 47.53 222.4 47.53 245.79 L 136.92 245.79 C 136.92 222.27 171.7 222.31 171.7 245.79 L 179.65 245.79 C 180.97 245.67 181.73 244.5 182.37 243.12 L 182.22 219.11 Z M 108.33 218 L 60.65 218 C 58.83 217.29 58.59 216.2 59.34 214.89 L 76.49 198 C 76.87 197.68 77.19 197.22 77.85 197.33 L 108.33 197.33 L 108.33 218 Z M 157.72 218 L 114 218 L 114 197.31 L 139.64 197.31 C 140.3 197.2 140.61 197.66 141 197.99 L 155.7 212.74 C 157.06 214.79 159.78 217.58 157.72 218 Z M 29.91 231.62 C 22.06 231.62 15.67 237.97 15.67 245.81 C 15.67 253.65 22.04 260 29.91 260 C 37.78 260 44.15 253.65 44.15 245.81 C 44.15 237.97 37.77 231.62 29.91 231.62 Z M 29.91 251.78 C 26.6 251.78 23.9 249.1 23.9 245.79 C 23.9 242.48 26.58 239.81 29.91 239.81 C 33.22 239.81 35.91 242.48 35.91 245.79 C 35.91 249.1 33.22 251.78 29.91 251.78 Z M 154.3 231.62 C 146.44 231.62 140.06 237.97 140.06 245.81 C 140.06 253.65 146.43 260 154.3 260 C 162.17 260 168.52 253.65 168.52 245.81 C 168.52 237.97 162.15 231.62 154.3 231.62 Z M 154.3 251.78 C 150.99 251.78 148.28 249.1 148.28 245.79 C 148.28 242.48 150.97 239.81 154.3 239.81 C 157.61 239.81 160.3 242.48 160.3 245.79 C 160.3 249.1 157.61 251.78 154.3 251.78 Z" fill-opacity="0.35" fill="#ffe6cc" stroke="#d79b00" stroke-opacity="0.35" stroke-miterlimit="10" transform="translate(91.18,0)scale(-1,1)translate(-91.18,0)" pointer-events="all"/></g><g><rect x="70" y="350" width="200" height="150" fill="rgb(255, 255, 255)" stroke="rgb(0, 0, 0)" stroke-width="2" pointer-events="all"/></g><g><g fill="rgb(0, 0, 0)" font-family="Helvetica" text-anchor="middle" font-size="16px"><text x="169.5" y="521.5">Controller</text></g></g><g><rect x="90" y="380" width="120" height="30" fill="#dae8fc" stroke="#6c8ebf" stroke-width="2" pointer-events="all"/></g><g><g fill="rgb(0, 0, 0)" font-family="Helvetica" font-size="12px"><text x="91.5" y="404.5">time: 0:31.14</text></g></g><g><ellipse cx="245" cy="395" rx="15" ry="15" fill="rgb(255, 255, 255)" stroke="rgb(0, 0, 0)" stroke-width="2" pointer-events="all"/></g><g><rect x="490" y="350" width="200" height="150" fill="rgb(255, 255, 255)" stroke="rgb(0, 0, 0)" stroke-width="2" pointer-events="all"/></g><g><g fill="rgb(0, 0, 0)" font-family="Helvetica" text-anchor="middle" font-size="16px"><text x="589.5" y="521.5">Responder</text></g></g><g><path d="M 170 110 L 170 350" fill="none" stroke="#b85450" stroke-width="3" stroke-miterlimit="10" pointer-events="stroke"/></g><g><rect x="115" y="20" width="110" height="90" fill="rgb(255, 255, 255)" stroke="rgb(0, 0, 0)" stroke-width="2" pointer-events="all"/></g><g><g fill="rgb(0, 0, 0)" font-family="Helvetica" text-anchor="middle" font-size="16px"><text x="169.5" y="14.5">Laser</text></g></g><g><path d="M 590 110 L 590 350" fill="none" stroke="#b85450" stroke-width="3" stroke-miterlimit="10" pointer-events="stroke"/></g><g><rect x="535" y="20" width="110" height="90" fill="rgb(255, 255, 255)" stroke="rgb(0, 0, 0)" stroke-width="2" pointer-events="all"/></g><g><g fill="rgb(0, 0, 0)" font-family="Helvetica" text-anchor="middle" font-size="16px"><text x="589.5" y="14.5">Laser</text></g></g><g><path d="M 240 230 L 371.76 230" fill="none" stroke="rgb(0, 0, 0)" stroke-width="2" stroke-miterlimit="10" pointer-events="stroke"/><path d="M 377.76 230 L 369.76 234 L 371.76 230 L 369.76 226 Z" fill="rgb(0, 0, 0)" stroke="rgb(0, 0, 0)" stroke-width="2" stroke-miterlimit="10" pointer-events="all"/></g></g></svg>