<?xml version="1.0" encoding="UTF-8"?>
<!-- Do not edit this file with editors other than draw.io -->
<!DOCTYPE svg PUBLIC "-//W3C//DTD SVG 1.1//EN" "http://www.w3.org/Graphics/SVG/1.1/DTD/svg11.dtd">
<svg xmlns="http://www.w3.org/2000/svg" xmlns:xlink="http://www.w3.org/1999/xlink" version="1.1" width="692px" height="526px" viewBox="-0.5 -0.5 692 526" content="&lt;mxfile host=&quot;Electron&quot; modified=&quot;2024-03-26T03:23:30.171Z&quot; agent=&quot;Mozilla/5.0 (Macintosh; Intel Mac OS X 10_15_7) AppleWebKit/537.36 (KHTML, like Gecko) draw.io/24.1.0 Chrome/120.0.6099.109 Electron/28.1.0 Safari/537.36&quot; etag=&quot;SAJXL15-Xkj_PcLC1AYr&quot; version=&quot;24.1.0&quot; type=&quot;device&quot; scale=&quot;1&quot; border=&quot;0&quot;&gt;&#10;  &lt;diagram name=&quot;Page-1&quot; id=&quot;bD0IqmXJnWUJFcVXPiYF&quot;&gt;&#10;    &lt;mxGraphModel dx=&quot;1174&quot; dy=&quot;809&quot; grid=&quot;1&quot; gridSize=&quot;10&quot; guides=&quot;1&quot; tooltips=&quot;1&quot; connect=&quot;1&quot; arrows=&quot;1&quot; fold=&quot;1&quot; page=&quot;1&quot; pageScale=&quot;1&quot; pageWidth=&quot;1600&quot; pageHeight=&quot;1200&quot; math=&quot;0&quot; shadow=&quot;0&quot;&gt;&#10;      &lt;root&gt;&#10;        &lt;mxCell id=&quot;0&quot; /&gt;&#10;        &lt;mxCell id=&quot;1&quot; parent=&quot;0&quot; /&gt;&#10;        &lt;mxCell id=&quot;9WA2omqz3V34yPvR_A12-12&quot; value=&quot;&quot; style=&quot;shape=mxgraph.signs.transportation.car_3;html=1;pointerEvents=1;fillColor=#ffe6cc;strokeColor=#d79b00;verticalLabelPosition=bottom;verticalAlign=top;align=center;flipH=1;fontSize=11;&quot; vertex=&quot;1&quot; parent=&quot;1&quot;&gt;&#10;          &lt;mxGeometry x=&quot;550&quot; y=&quot;240&quot; width=&quot;182.37&quot; height=&quot;70&quot; as=&quot;geometry&quot; /&gt;&#10;        &lt;/mxCell&gt;&#10;        &lt;mxCell id=&quot;9WA2omqz3V34yPvR_A12-1&quot; value=&quot;&quot; style=&quot;shape=mxgraph.signs.transportation.car_3;html=1;pointerEvents=1;fillColor=#ffe6cc;strokeColor=#d79b00;verticalLabelPosition=bottom;verticalAlign=top;align=center;flipH=1;opacity=35;&quot; vertex=&quot;1&quot; parent=&quot;1&quot;&gt;&#10;          &lt;mxGeometry x=&quot;130&quot; y=&quot;240&quot; width=&quot;182.37&quot; height=&quot;70&quot; as=&quot;geometry&quot; /&gt;&#10;        &lt;/mxCell&gt;&#10;        &lt;mxCell id=&quot;9WA2omqz3V34yPvR_A12-2&quot; value=&quot;Controller&quot; style=&quot;rounded=0;labelPosition=center;verticalLabelPosition=bottom;align=center;verticalAlign=top;fontSize=16;strokeWidth=2;&quot; vertex=&quot;1&quot; parent=&quot;1&quot;&gt;&#10;          &lt;mxGeometry x=&quot;200&quot; y=&quot;400&quot; width=&quot;200&quot; height=&quot;150&quot; as=&quot;geometry&quot; /&gt;&#10;        &lt;/mxCell&gt;&#10;        &lt;mxCell id=&quot;9WA2omqz3V34yPvR_A12-3&quot; value=&quot;time: 0:31.14&quot; style=&quot;rounded=0;fillColor=#dae8fc;strokeColor=#6c8ebf;align=left;labelPosition=center;verticalLabelPosition=middle;verticalAlign=bottom;strokeWidth=2;&quot; vertex=&quot;1&quot; parent=&quot;1&quot;&gt;&#10;          &lt;mxGeometry x=&quot;220&quot; y=&quot;430&quot; width=&quot;120&quot; height=&quot;30&quot; as=&quot;geometry&quot; /&gt;&#10;        &lt;/mxCell&gt;&#10;        &lt;mxCell id=&quot;9WA2omqz3V34yPvR_A12-4&quot; value=&quot;&quot; style=&quot;ellipse;whiteSpace=wrap;html=1;aspect=fixed;strokeWidth=2;&quot; vertex=&quot;1&quot; parent=&quot;1&quot;&gt;&#10;          &lt;mxGeometry x=&quot;360&quot; y=&quot;430&quot; width=&quot;30&quot; height=&quot;30&quot; as=&quot;geometry&quot; /&gt;&#10;        &lt;/mxCell&gt;&#10;        &lt;mxCell id=&quot;9WA2omqz3V34yPvR_A12-5&quot; value=&quot;Responder&quot; style=&quot;rounded=0;labelPosition=center;verticalLabelPosition=bottom;align=center;verticalAlign=top;fontSize=16;strokeWidth=2;&quot; vertex=&quot;1&quot; parent=&quot;1&quot;&gt;&#10;          &lt;mxGeometry x=&quot;620&quot; y=&quot;400&quot; width=&quot;200&quot; height=&quot;150&quot; as=&quot;geometry&quot; /&gt;&#10;        &lt;/mxCell&gt;&#10;        &lt;mxCell id=&quot;9WA2omqz3V34yPvR_A12-9&quot; style=&quot;edgeStyle=orthogonalEdgeStyle;rounded=0;orthogonalLoop=1;jettySize=auto;html=1;endArrow=none;endFill=0;strokeWidth=3;fillColor=#f8cecc;strokeColor=#b85450;&quot; edge=&quot;1&quot; parent=&quot;1&quot; source=&quot;9WA2omqz3V34yPvR_A12-8&quot; target=&quot;9WA2omqz3V34yPvR_A12-2&quot;&gt;&#10;          &lt;mxGeometry relative=&quot;1&quot; as=&quot;geometry&quot; /&gt;&#10;        &lt;/mxCell&gt;&#10;        &lt;mxCell id=&quot;9WA2omqz3V34yPvR_A12-8&quot; value=&quot;Laser&quot; style=&quot;rounded=0;labelPosition=center;verticalLabelPosition=top;align=center;verticalAlign=bottom;fontSize=16;strokeWidth=2;&quot; vertex=&quot;1&quot; parent=&quot;1&quot;&gt;&#10;          &lt;mxGeometry x=&quot;245&quot; y=&quot;70&quot; width=&quot;110&quot; height=&quot;90&quot; as=&quot;geometry&quot; /&gt;&#10;        &lt;/mxCell&gt;&#10;        &lt;mxCell id=&quot;9WA2omqz3V34yPvR_A12-11&quot; style=&quot;edgeStyle=orthogonalEdgeStyle;rounded=0;orthogonalLoop=1;jettySize=auto;html=1;strokeColor=#b85450;strokeWidth=3;align=center;verticalAlign=middle;fontFamily=Helvetica;fontSize=11;fontColor=default;labelBackgroundColor=default;endArrow=none;endFill=0;fillColor=#f8cecc;&quot; edge=&quot;1&quot; parent=&quot;1&quot; source=&quot;9WA2omqz3V34yPvR_A12-10&quot; target=&quot;9WA2omqz3V34yPvR_A12-5&quot;&gt;&#10;          &lt;mxGeometry relative=&quot;1&quot; as=&quot;geometry&quot; /&gt;&#10;        &lt;/mxCell&gt;&#10;        &lt;mxCell id=&quot;9WA2omqz3V34yPvR_A12-10&quot; value=&quot;Laser&quot; style=&quot;rounded=0;labelPosition=center;verticalLabelPosition=top;align=center;verticalAlign=bottom;fontSize=16;strokeWidth=2;&quot; vertex=&quot;1&quot; parent=&quot;1&quot;&gt;&#10;          &lt;mxGeometry x=&quot;665&quot; y=&quot;70&quot; width=&quot;110&quot; height=&quot;90&quot; as=&quot;geometry&quot; /&gt;&#10;        &lt;/mxCell&gt;&#10;        &lt;mxCell id=&quot;9WA2omqz3V34yPvR_A12-14&quot; value=&quot;&quot; style=&quot;endArrow=classic;html=1;rounded=0;strokeWidth=2;&quot; edge=&quot;1&quot; parent=&quot;1&quot;&gt;&#10;          &lt;mxGeometry width=&quot;50&quot; height=&quot;50&quot; relative=&quot;1&quot; as=&quot;geometry&quot;&gt;&#10;            &lt;mxPoint x=&quot;370&quot; y=&quot;280&quot; as=&quot;sourcePoint&quot; /&gt;&#10;            &lt;mxPoint x=&quot;510&quot; y=&quot;280&quot; as=&quot;targetPoint&quot; /&gt;&#10;          &lt;/mxGeometry&gt;&#10;        &lt;/mxCell&gt;&#10;      &lt;/root&gt;&#10;    &lt;/mxGraphModel&gt;&#10;  &lt;/diagram&gt;&#10;&lt;/mxfile&gt;&#10;">

<defs>
    <style type="text/css">
    @media (prefers-color-scheme: dark)
    {
        svg {
            filter: invert(93%) hue-rotate(180deg);
            background-color: transparent !important;
        }
        image {
            filter: invert(100%) hue-rotate(180deg) saturate(1.25);
        }
    }
    </style>
</defs>

<g><g><rect x="420" y="190" width="182.37" height="70" fill="none" stroke="none" transform="translate(511.18,0)scale(-1,1)translate(-511.18,0)" pointer-events="all"/><path d="M 602.22 219.11 C 602.13 218.6 601.93 217.98 601.56 217.18 L 567.35 190.09 L 498.51 190.09 C 496.91 190 496.05 190.75 495.29 191.62 L 472.3 214.61 L 421.97 222.94 C 421.27 223.56 420.57 224.16 420 225.73 L 420.11 242.99 C 421.2 245.76 421.95 245.39 422.78 245.79 L 432.47 245.79 C 432.47 222.33 467.53 222.4 467.53 245.79 L 556.92 245.79 C 556.92 222.27 591.7 222.31 591.7 245.79 L 599.65 245.79 C 600.97 245.67 601.73 244.5 602.37 243.12 L 602.22 219.11 Z M 528.33 218 L 480.65 218 C 478.83 217.29 478.59 216.2 479.34 214.89 L 496.49 198 C 496.87 197.68 497.19 197.22 497.85 197.33 L 528.33 197.33 L 528.33 218 Z M 577.72 218 L 534 218 L 534 197.31 L 559.64 197.31 C 560.3 197.2 560.61 197.66 561 197.99 L 575.7 212.74 C 577.06 214.79 579.78 217.58 577.72 218 Z M 449.91 231.62 C 442.06 231.62 435.67 237.97 435.67 245.81 C 435.67 253.65 442.04 260 449.91 260 C 457.78 260 464.15 253.65 464.15 245.81 C 464.15 237.97 457.77 231.62 449.91 231.62 Z M 449.91 251.78 C 446.6 251.78 443.9 249.1 443.9 245.79 C 443.9 242.48 446.58 239.81 449.91 239.81 C 453.22 239.81 455.91 242.48 455.91 245.79 C 455.91 249.1 453.22 251.78 449.91 251.78 Z M 574.3 231.62 C 566.44 231.62 560.06 237.97 560.06 245.81 C 560.06 253.65 566.43 260 574.3 260 C 582.17 260 588.52 253.65 588.52 245.81 C 588.52 237.97 582.15 231.62 574.3 231.62 Z M 574.3 251.78 C 570.99 251.78 568.28 249.1 568.28 245.79 C 568.28 242.48 570.97 239.81 574.3 239.81 C 577.61 239.81 580.3 242.48 580.3 245.79 C 580.3 249.1 577.61 251.78 574.3 251.78 Z" fill="#ffe6cc" stroke="#d79b00" stroke-miterlimit="10" transform="translate(511.18,0)scale(-1,1)translate(-511.18,0)" pointer-events="all"/></g><g><rect x="0" y="190" width="182.37" height="70" fill="none" stroke="none" transform="translate(91.18,0)scale(-1,1)translate(-91.18,0)" pointer-events="all"/><path d="M 182.22 219.11 C 182.13 218.6 181.93 217.98 181.56 217.18 L 147.35 190.09 L 78.51 190.09 C 76.91 190 76.05 190.75 75.29 191.62 L 52.3 214.61 L 1.97 222.94 C 1.27 223.56 0.57 224.16 0 225.73 L 0.11 242.99 C 1.2 245.76 1.95 245.39 2.78 245.79 L 12.47 245.79 C 12.47 222.33 47.53 222.4 47.53 245.79 L 136.92 245.79 C 136.92 222.27 171.7 222.31 171.7 245.79 L 179.65 245.79 C 180.97 245.67 181.73 244.5 182.37 243.12 L 182.22 219.11 Z M 108.33 218 L 60.65 218 C 58.83 217.29 58.59 216.2 59.34 214.89 L 76.49 198 C 76.87 197.68 77.19 197.22 77.85 197.33 L 108.33 197.33 L 108.33 218 Z M 157.72 218 L 114 218 L 114 197.31 L 139.64 197.31 C 140.3 197.2 140.61 197.66 141 197.99 L 155.7 212.74 C 157.06 214.79 159.78 217.58 157.72 218 Z M 29.91 231.62 C 22.06 231.62 15.67 237.97 15.67 245.81 C 15.67 253.65 22.04 260 29.91 260 C 37.78 260 44.15 253.65 44.15 245.81 C 44.15 237.97 37.77 231.62 29.91 231.62 Z M 29.91 251.78 C 26.6 251.78 23.9 249.1 23.9 245.79 C 23.9 242.48 26.58 239.81 29.91 239.81 C 33.22 239.81 35.91 242.48 35.91 245.79 C 35.91 249.1 33.22 251.78 29.91 251.78 Z M 154.3 231.62 C 146.44 231.62 140.06 237.97 140.06 245.81 C 140.06 253.65 146.43 260 154.3 260 C 162.17 260 168.52 253.65 168.52 245.81 C 168.52 237.97 162.15 231.62 154.3 231.62 Z M 154.3 251.78 C 150.99 251.78 148.28 249.1 148.28 245.79 C 148.28 242.48 150.97 239.81 154.3 239.81 C 157.61 239.81 160.3 242.48 160.3 245.79 C 160.3 249.1 157.61 251.78 154.3 251.78 Z" fill-opacity="0.35" fill="#ffe6cc" stroke="#d79b00" stroke-opacity="0.35" stroke-miterlimit="10" transform="translate(91.18,0)scale(-1,1)translate(-91.18,0)" pointer-events="all"/></g><g><rect x="70" y="350" width="200" height="150" fill="rgb(255, 255, 255)" stroke="rgb(0, 0, 0)" stroke-width="2" pointer-events="all"/></g><g><g fill="rgb(0, 0, 0)" font-family="Helvetica" text-anchor="middle" font-size="16px"><text x="169.5" y="521.5">Controller</text></g></g><g><rect x="90" y="380" width="120" height="30" fill="#dae8fc" stroke="#6c8ebf" stroke-width="2" pointer-events="all"/></g><g><g fill="rgb(0, 0, 0)" font-family="Helvetica" font-size="12px"><text x="91.5" y="404.5">time: 0:31.14</text></g></g><g><ellipse cx="245" cy="395" rx="15" ry="15" fill="rgb(255, 255, 255)" stroke="rgb(0, 0, 0)" stroke-width="2" pointer-events="all"/></g><g><rect x="490" y="350" width="200" height="150" fill="rgb(255, 255, 255)" stroke="rgb(0, 0, 0)" stroke-width="2" pointer-events="all"/></g><g><g fill="rgb(0, 0, 0)" font-family="Helvetica" text-anchor="middle" font-size="16px"><text x="589.5" y="521.5">Responder</text></g></g><g><path d="M 170 110 L 170 350" fill="none" stroke="#b85450" stroke-width="3" stroke-miterlimit="10" pointer-events="stroke"/></g><g><rect x="115" y="20" width="110" height="90" fill="rgb(255, 255, 255)" stroke="rgb(0, 0, 0)" stroke-width="2" pointer-events="all"/></g><g><g fill="rgb(0, 0, 0)" font-family="Helvetica" text-anchor="middle" font-size="16px"><text x="169.5" y="14.5">Laser</text></g></g><g><path d="M 590 110 L 590 350" fill="none" stroke="#b85450" stroke-width="3" stroke-miterlimit="10" pointer-events="stroke"/></g><g><rect x="535" y="20" width="110" height="90" fill="rgb(255, 255, 255)" stroke="rgb(0, 0, 0)" stroke-width="2" pointer-events="all"/></g><g><g fill="rgb(0, 0, 0)" font-family="Helvetica" text-anchor="middle" font-size="16px"><text x="589.5" y="14.5">Laser</text></g></g><g><path d="M 240 230 L 371.76 230" fill="none" stroke="rgb(0, 0, 0)" stroke-width="2" stroke-miterlimit="10" pointer-events="stroke"/><path d="M 377.76 230 L 369.76 234 L 371.76 230 L 369.76 226 Z" fill="rgb(0, 0, 0)" stroke="rgb(0, 0, 0)" stroke-width="2" stroke-miterlimit="10" pointer-events="all"/></g></g></svg>